<svg viewBox="0 0 1382 1028" fill="none" xmlns="http://www.w3.org/2000/svg">
<path d="M691 1028C309.843 1028 0 797.523 0 514C0 230.477 309.843 0 691 0C1072.16 0 1382 230.477 1382 514C1382 797.523 1072.16 1028 691 1028ZM691 6.58505C314.762 6.58505 8.85268 234.135 8.85268 514C8.85268 793.865 314.762 1021.42 691 1021.42C1067.24 1021.42 1373.15 793.865 1373.15 514C1373.15 234.135 1067.24 6.58505 691 6.58505Z" fill="#2F2C2C" fill-opacity="0.15"/>
<path d="M691 966.173C356.074 966.173 83.1165 763.5 83.1165 514C83.1165 264.865 355.582 61.8259 691 61.8259C1026.42 61.8259 1298.88 264.499 1298.88 514C1298.88 763.5 1025.93 966.173 691 966.173ZM691 68.411C360.992 68.411 91.9691 268.158 91.9691 514C91.9691 759.476 360.5 959.588 691 959.588C1021.5 959.588 1290.03 759.842 1290.03 514C1290.03 268.523 1021.01 68.411 691 68.411Z" fill="#2F2C2C" fill-opacity="0.15"/>
<path d="M691 904.347C401.812 904.347 166.725 729.112 166.725 514C166.725 298.888 401.812 124.018 691 124.018C980.187 124.018 1215.27 298.888 1215.27 514C1215.27 729.112 980.187 904.347 691 904.347ZM691 130.603C406.731 130.603 175.578 302.546 175.578 514C175.578 725.453 406.731 897.396 691 897.396C975.269 897.396 1206.42 725.453 1206.42 514C1206.42 302.546 975.269 130.603 691 130.603Z" fill="#2F2C2C" fill-opacity="0.15"/>
<path d="M691 842.155C447.552 842.155 249.842 695.089 249.842 514C249.842 332.911 447.552 185.845 691 185.845C934.448 185.845 1132.16 332.911 1132.16 514C1132.16 695.089 934.448 842.155 691 842.155ZM691 192.43C452.47 192.43 258.695 336.569 258.695 514C258.695 691.431 452.47 835.57 691 835.57C929.53 835.57 1123.31 691.431 1123.31 514C1123.31 336.569 929.53 192.43 691 192.43Z" fill="#2F2C2C" fill-opacity="0.15"/>
<path d="M691 780.329C493.782 780.329 332.958 661.066 332.958 514C332.958 366.934 493.29 247.671 691 247.671C888.709 247.671 1049.04 366.934 1049.04 514C1049.04 661.066 888.217 780.329 691 780.329ZM691 254.622C498.7 254.622 341.811 370.958 341.811 514.366C341.811 657.774 498.208 774.11 691 774.11C883.791 774.11 1040.19 657.774 1040.19 514.366C1040.19 370.958 883.299 254.622 691 254.622Z" fill="#2F2C2C" fill-opacity="0.15"/>
<path d="M691 718.136C539.521 718.136 416.567 626.677 416.567 513.999C416.567 401.322 539.521 309.863 691 309.863C842.479 309.863 965.432 401.322 965.432 513.999C965.432 626.677 842.479 718.136 691 718.136ZM691 316.448C544.439 316.448 425.42 404.98 425.42 513.999C425.42 623.019 544.439 711.551 691 711.551C837.561 711.551 956.58 623.019 956.58 513.999C956.58 404.98 837.561 316.448 691 316.448Z" fill="#2F2C2C" fill-opacity="0.15"/>
<path d="M691.001 656.311C585.752 656.311 499.685 592.655 499.685 514.001C499.685 435.346 585.26 371.69 691.001 371.69C796.741 371.69 882.317 435.346 882.317 514.001C882.317 592.655 796.249 656.311 691.001 656.311ZM691.001 378.275C590.67 378.275 508.537 439.004 508.537 514.001C508.537 588.997 590.179 649.726 691.001 649.726C791.823 649.726 873.464 588.997 873.464 514.001C873.464 439.004 791.823 378.275 691.001 378.275Z" fill="#2F2C2C" fill-opacity="0.15"/>
<path d="M691 594.484C631.491 594.484 582.801 558.632 582.801 514C582.801 469.368 630.999 433.516 691 433.516C751.002 433.516 799.2 469.368 799.2 514C799.2 558.632 750.51 594.484 691 594.484ZM691 440.467C636.409 440.467 592.145 473.392 592.145 514C592.145 554.608 636.409 587.533 691 587.533C745.592 587.533 789.855 554.608 789.855 514C789.855 473.392 745.592 440.467 691 440.467Z" fill="#2F2C2C" fill-opacity="0.15"/>
</svg>
